<svg xmlns="http://www.w3.org/2000/svg" xmlns:xlink="http://www.w3.org/1999/xlink" version="1.1" width="256" height="256" viewBox="0 0 256 256" xml:space="preserve">

<defs>
</defs>
<g style="stroke: none; stroke-width: 0; stroke-dasharray: none; stroke-linecap: butt; stroke-linejoin: miter; stroke-miterlimit: 10; fill: none; fill-rule: nonzero; opacity: 1;" transform="translate(1.4065934065934016 1.4065934065934016) scale(2.81 2.81)" >
	<path d="M 78.39 55.325 c -2.02 -0.89 -4.383 0.024 -5.273 2.047 C 68.207 68.512 57.17 75.709 45 75.709 c -12.697 0 -23.618 -7.746 -28.288 -18.76 l 1.808 -0.168 c 1.547 -0.144 2.871 -1.17 3.396 -2.633 c 0.524 -1.462 0.155 -3.096 -0.948 -4.19 l -7.859 -7.797 c -0.019 -0.019 -0.043 -0.031 -0.062 -0.049 c -0.18 -0.171 -0.373 -0.327 -0.583 -0.463 c -0.074 -0.048 -0.154 -0.083 -0.231 -0.125 c -0.165 -0.092 -0.332 -0.179 -0.51 -0.248 c -0.095 -0.036 -0.192 -0.061 -0.289 -0.09 c -0.166 -0.05 -0.332 -0.094 -0.506 -0.122 c -0.116 -0.019 -0.232 -0.027 -0.35 -0.035 C 10.482 41.022 10.39 41 10.292 41 c -0.068 0 -0.132 0.017 -0.2 0.02 c -0.057 0.003 -0.113 -0.008 -0.169 -0.003 c -0.066 0.006 -0.128 0.03 -0.193 0.04 c -0.166 0.024 -0.327 0.056 -0.485 0.1 c -0.109 0.03 -0.215 0.061 -0.32 0.099 c -0.16 0.059 -0.313 0.129 -0.462 0.207 c -0.095 0.049 -0.19 0.096 -0.281 0.153 c -0.15 0.094 -0.287 0.201 -0.422 0.313 c -0.077 0.063 -0.158 0.12 -0.23 0.19 C 7.37 42.269 7.231 42.437 7.1 42.612 c -0.031 0.041 -0.071 0.073 -0.1 0.115 l -0.025 0.036 c 0 0 -0.001 0.001 -0.001 0.001 l -6.266 9.072 c -0.883 1.278 -0.945 2.952 -0.161 4.294 c 0.722 1.233 2.041 1.979 3.452 1.979 c 0.123 0 0.247 -0.006 0.37 -0.017 l 4.078 -0.378 C 13.721 72.83 28.11 83.709 45 83.709 c 15.339 0 29.249 -9.071 35.437 -23.11 C 81.327 58.577 80.411 56.216 78.39 55.325 z" style="stroke: none; stroke-width: 1; stroke-dasharray: none; stroke-linecap: butt; stroke-linejoin: miter; stroke-miterlimit: 10; fill: rgb(32,196,203); fill-rule: nonzero; opacity: 1;" transform=" matrix(1 0 0 1 0 0) " stroke-linecap="round" />
	<path d="M 89.291 38.164 c 0.883 -1.278 0.946 -2.952 0.161 -4.293 c -0.784 -1.341 -2.271 -2.108 -3.821 -1.963 l -4.078 0.378 C 76.28 17.17 61.89 6.292 45 6.292 c -15.339 0 -29.249 9.071 -35.436 23.11 c -0.891 2.021 0.025 4.382 2.047 5.273 c 2.021 0.892 4.382 -0.025 5.273 -2.047 C 21.794 21.489 32.83 14.292 45 14.292 c 12.697 0 23.619 7.746 28.289 18.76 l -1.808 0.168 c -1.547 0.144 -2.871 1.169 -3.396 2.632 c -0.525 1.462 -0.155 3.096 0.947 4.19 l 7.859 7.798 c 0.061 0.061 0.134 0.105 0.199 0.162 c 0.129 0.113 0.256 0.229 0.399 0.325 c 0.083 0.055 0.174 0.093 0.261 0.142 c 0.14 0.079 0.276 0.163 0.425 0.225 c 0.104 0.043 0.214 0.066 0.322 0.1 c 0.14 0.045 0.277 0.098 0.424 0.128 C 79.179 48.972 79.443 49 79.709 49 c 0.122 0 0.246 -0.006 0.369 -0.017 c 0.068 -0.006 0.131 -0.031 0.198 -0.041 c 0.163 -0.023 0.321 -0.055 0.476 -0.098 c 0.111 -0.03 0.22 -0.062 0.327 -0.102 c 0.158 -0.058 0.308 -0.128 0.456 -0.204 c 0.097 -0.05 0.193 -0.097 0.285 -0.155 c 0.149 -0.093 0.286 -0.201 0.421 -0.312 c 0.077 -0.064 0.158 -0.12 0.23 -0.19 c 0.158 -0.152 0.298 -0.32 0.43 -0.496 c 0.03 -0.04 0.069 -0.072 0.098 -0.113 l 0.024 -0.035 c 0.001 -0.001 0.002 -0.002 0.002 -0.003 L 89.291 38.164 z" style="stroke: none; stroke-width: 1; stroke-dasharray: none; stroke-linecap: butt; stroke-linejoin: miter; stroke-miterlimit: 10; fill: rgb(32,196,203); fill-rule: nonzero; opacity: 1;" transform=" matrix(1 0 0 1 0 0) " stroke-linecap="round" />
</g>
</svg>
