<?xml version="1.0" encoding="iso-8859-1"?>
<!-- Generator: Adobe Illustrator 19.0.0, SVG Export Plug-In . SVG Version: 6.00 Build 0)  -->
<svg version="1.1" id="Layer_1" xmlns="http://www.w3.org/2000/svg" xmlns:xlink="http://www.w3.org/1999/xlink" x="0px" y="0px"
	 viewBox="0 0 392.598 392.598" preserveAspectRatio="none" style="enable-background:new 0 0 392.598 392.598;" xml:space="none">
<path style="fill:#56ACE0;" d="M21.786,350.707c0,11.055,8.986,20.04,20.04,20.04h308.945c11.055,0,20.04-8.986,20.04-20.04v-51.006
	H21.786V350.707z"/>
<g>
	<path style="fill:#FFFFFF;" d="M370.747,176.032h-81.261l-18.36,41.503c-4.008,9.115-17.261,8.469-20.299-1.034l-21.204-64.453
		l-31.935,69.236c-4.59,9.891-19.135,7.758-20.687-3.038l-14.093-98.909l-28.057,56.695H21.786V277.98h348.962L370.747,176.032
		L370.747,176.032z"/>
	<path style="fill:#FFFFFF;" d="M370.747,41.826c0-11.055-8.986-20.04-20.04-20.04H41.826c-11.055,0-20.04,8.986-20.04,20.04v112.42
		h99.62l37.689-76.024c4.784-9.568,19.071-7.24,20.558,3.297l13.77,96.97l28.057-60.832c4.202-8.986,17.131-8.275,20.234,1.164
		l20.945,63.935l12.671-28.509h95.418V41.826L370.747,41.826z"/>
</g>
<path style="fill:#194F82;" d="M350.707,0H41.826C18.812,0,0,18.747,0,41.826v308.945c0,23.014,18.747,41.826,41.826,41.826h308.945
	c23.014,0,41.826-18.747,41.826-41.826V41.826C392.533,18.747,373.786,0,350.707,0z M370.747,350.707
	c0,11.055-8.986,20.04-20.04,20.04H41.826c-11.055,0-20.04-8.986-20.04-20.04v-51.006h348.962L370.747,350.707L370.747,350.707z
	 M370.747,277.915H21.786V176.032h113.131l28.057-56.63l14.093,98.909c1.552,10.731,16.162,12.929,20.687,3.038l31.935-69.236
	l21.204,64.453c3.103,9.503,16.291,10.15,20.299,1.034l18.36-41.503h81.196L370.747,277.915L370.747,277.915z M370.747,154.246
	h-95.418l-12.671,28.509l-20.945-63.935c-3.103-9.438-16.162-10.214-20.234-1.164l-28.057,60.832l-13.77-97.034
	c-1.552-10.602-15.838-12.929-20.558-3.297l-37.689,76.024h-99.62V41.826c0-11.055,8.986-20.04,20.04-20.04h308.945
	c11.055,0,20.04,8.986,20.04,20.04v112.42H370.747z"/>
<g>
	<path style="fill:#FFC10D;" d="M43.572,43.572v18.036h38.077c6.012,0,10.925,4.848,10.925,10.925
		c0,6.012-4.848,10.925-10.925,10.925H43.572v21.786h21.786c6.012,0,10.925,4.848,10.925,10.925c0,6.012-4.848,10.925-10.925,10.925
		H43.572v27.216h77.705l37.689-76.024c4.784-9.568,19.071-7.24,20.558,3.297l13.834,97.034l28.057-60.832
		c4.202-8.986,17.131-8.275,20.234,1.164l20.945,63.935l12.671-28.509h73.632V43.572H43.572z"/>
	<path style="fill:#FFC10D;" d="M348.962,176.032h-59.41l-18.36,41.503c-4.008,9.115-17.261,8.469-20.299-1.034l-21.204-64.453
		l-31.935,69.236c-4.59,9.891-19.135,7.758-20.687-3.038l-14.093-98.909l-28.057,56.63H43.572V256h305.325v-79.968H348.962z"/>
</g>
<g>
	<path style="fill:#194F82;" d="M319.741,346.182h20.687c6.012,0,10.925-4.848,10.925-10.925c0-6.012-4.848-10.925-10.925-10.925
		h-20.687c-6.012,0-10.925,4.848-10.925,10.925C308.881,341.204,313.729,346.182,319.741,346.182z"/>
	<path style="fill:#194F82;" d="M254.966,346.182h20.687c6.012,0,10.925-4.848,10.925-10.925c0-6.012-4.848-10.925-10.925-10.925
		h-20.687c-6.012,0-10.925,4.848-10.925,10.925C244.04,341.204,248.954,346.182,254.966,346.182z"/>
	<path style="fill:#194F82;" d="M52.105,346.182h158.772c6.012,0,10.925-4.848,10.925-10.925c0-6.012-4.848-10.925-10.925-10.925
		H52.105c-6.012,0-10.925,4.848-10.925,10.925C41.18,341.204,46.028,346.182,52.105,346.182z"/>
</g>
<g>
</g>
<g>
</g>
<g>
</g>
<g>
</g>
<g>
</g>
<g>
</g>
<g>
</g>
<g>
</g>
<g>
</g>
<g>
</g>
<g>
</g>
<g>
</g>
<g>
</g>
<g>
</g>
<g>
</g>
</svg>
