<svg xmlns="http://www.w3.org/2000/svg" xmlns:xlink="http://www.w3.org/1999/xlink" version="1.1" width="256" height="256" viewBox="0 0 256 256" xml:space="preserve">

<defs>
</defs>
<g style="stroke: none; stroke-width: 0; stroke-dasharray: none; stroke-linecap: butt; stroke-linejoin: miter; stroke-miterlimit: 10; fill: none; fill-rule: nonzero; opacity: 1;" transform="translate(1.4065934065934016 1.4065934065934016) scale(2.81 2.81)" >
	<circle cx="45" cy="45" r="45" style="stroke: none; stroke-width: 1; stroke-dasharray: none; stroke-linecap: butt; stroke-linejoin: miter; stroke-miterlimit: 10; fill: rgb(32,196,203); fill-rule: nonzero; opacity: 1;" transform="  matrix(1 0 0 1 0 0) "/>
	<circle cx="19.268" cy="58.738" r="4.498" style="stroke: none; stroke-width: 1; stroke-dasharray: none; stroke-linecap: butt; stroke-linejoin: miter; stroke-miterlimit: 10; fill: rgb(27,167,173); fill-rule: nonzero; opacity: 1;" transform="  matrix(1 0 0 1 0 0) "/>
	<path d="M 19.268 65.735 c -3.858 0 -6.998 -3.14 -6.998 -6.998 s 3.139 -6.997 6.998 -6.997 c 3.859 0 6.998 3.139 6.998 6.997 S 23.126 65.735 19.268 65.735 z M 19.268 56.74 c -1.102 0 -1.998 0.896 -1.998 1.997 s 0.896 1.998 1.998 1.998 s 1.998 -0.896 1.998 -1.998 S 20.369 56.74 19.268 56.74 z" style="stroke: none; stroke-width: 1; stroke-dasharray: none; stroke-linecap: butt; stroke-linejoin: miter; stroke-miterlimit: 10; fill: rgb(27,167,173); fill-rule: nonzero; opacity: 1;" transform=" matrix(1 0 0 1 0 0) " stroke-linecap="round" />
	<circle cx="33.068" cy="44.128" r="4.498" style="stroke: none; stroke-width: 1; stroke-dasharray: none; stroke-linecap: butt; stroke-linejoin: miter; stroke-miterlimit: 10; fill: rgb(27,167,173); fill-rule: nonzero; opacity: 1;" transform="  matrix(1 0 0 1 0 0) "/>
	<path d="M 33.07 51.121 c -3.859 0 -6.998 -3.139 -6.998 -6.998 c 0 -3.858 3.139 -6.998 6.998 -6.998 c 3.858 0 6.998 3.139 6.998 6.998 C 40.067 47.982 36.928 51.121 33.07 51.121 z M 33.07 42.126 c -1.102 0 -1.998 0.896 -1.998 1.998 s 0.896 1.998 1.998 1.998 s 1.998 -0.896 1.998 -1.998 S 34.171 42.126 33.07 42.126 z" style="stroke: none; stroke-width: 1; stroke-dasharray: none; stroke-linecap: butt; stroke-linejoin: miter; stroke-miterlimit: 10; fill: rgb(27,167,173); fill-rule: nonzero; opacity: 1;" transform=" matrix(1 0 0 1 0 0) " stroke-linecap="round" />
	<circle cx="45.248" cy="58.738" r="4.498" style="stroke: none; stroke-width: 1; stroke-dasharray: none; stroke-linecap: butt; stroke-linejoin: miter; stroke-miterlimit: 10; fill: rgb(27,167,173); fill-rule: nonzero; opacity: 1;" transform="  matrix(1 0 0 1 0 0) "/>
	<path d="M 45.248 65.735 c -3.859 0 -6.998 -3.14 -6.998 -6.998 s 3.139 -6.997 6.998 -6.997 c 3.858 0 6.998 3.139 6.998 6.997 S 49.106 65.735 45.248 65.735 z M 45.248 56.74 c -1.102 0 -1.998 0.896 -1.998 1.997 s 0.896 1.998 1.998 1.998 s 1.998 -0.896 1.998 -1.998 S 46.35 56.74 45.248 56.74 z" style="stroke: none; stroke-width: 1; stroke-dasharray: none; stroke-linecap: butt; stroke-linejoin: miter; stroke-miterlimit: 10; fill: rgb(27,167,173); fill-rule: nonzero; opacity: 1;" transform=" matrix(1 0 0 1 0 0) " stroke-linecap="round" />
	<circle cx="67.168" cy="36.008" r="4.498" style="stroke: none; stroke-width: 1; stroke-dasharray: none; stroke-linecap: butt; stroke-linejoin: miter; stroke-miterlimit: 10; fill: rgb(27,167,173); fill-rule: nonzero; opacity: 1;" transform="  matrix(1 0 0 1 0 0) "/>
	<path d="M 67.169 43.003 c -3.858 0 -6.998 -3.139 -6.998 -6.998 c 0 -3.858 3.14 -6.998 6.998 -6.998 s 6.997 3.139 6.997 6.998 C 74.166 39.864 71.027 43.003 67.169 43.003 z M 67.169 34.007 c -1.102 0 -1.998 0.896 -1.998 1.998 s 0.896 1.998 1.998 1.998 s 1.997 -0.896 1.997 -1.998 S 68.271 34.007 67.169 34.007 z" style="stroke: none; stroke-width: 1; stroke-dasharray: none; stroke-linecap: butt; stroke-linejoin: miter; stroke-miterlimit: 10; fill: rgb(27,167,173); fill-rule: nonzero; opacity: 1;" transform=" matrix(1 0 0 1 0 0) " stroke-linecap="round" />
	<line x1="-6.901" y1="7.306999999999999" x2="6.901" y2="-7.306999999999999" style="stroke: none; stroke-width: 1; stroke-dasharray: none; stroke-linecap: butt; stroke-linejoin: miter; stroke-miterlimit: 10; fill: rgb(27,167,173); fill-rule: nonzero; opacity: 1;" transform=" matrix(1 0 0 1 0 0) "/>
	<rect x="16.12" y="48.43" rx="0" ry="0" width="20.1" height="6" style="stroke: none; stroke-width: 1; stroke-dasharray: none; stroke-linecap: butt; stroke-linejoin: miter; stroke-miterlimit: 10; fill: rgb(27,167,173); fill-rule: nonzero; opacity: 1;" transform=" matrix(0.6866 -0.7271 0.7271 0.6866 -29.1915 35.1475) "/>
	<line x1="6.088999999999999" y1="7.306999999999999" x2="-6.088999999999999" y2="-7.306999999999999" style="stroke: none; stroke-width: 1; stroke-dasharray: none; stroke-linecap: butt; stroke-linejoin: miter; stroke-miterlimit: 10; fill: rgb(27,167,173); fill-rule: nonzero; opacity: 1;" transform=" matrix(1 0 0 1 0 0) "/>
	<rect x="36.16" y="41.92" rx="0" ry="0" width="6" height="19.02" style="stroke: none; stroke-width: 1; stroke-dasharray: none; stroke-linecap: butt; stroke-linejoin: miter; stroke-miterlimit: 10; fill: rgb(27,167,173); fill-rule: nonzero; opacity: 1;" transform=" matrix(0.7682 -0.6402 0.6402 0.7682 -23.8486 36.9886) "/>
	<line x1="10.9605" y1="-11.366499999999998" x2="-10.9605" y2="11.366499999999998" style="stroke: none; stroke-width: 1; stroke-dasharray: none; stroke-linecap: butt; stroke-linejoin: miter; stroke-miterlimit: 10; fill: rgb(27,167,173); fill-rule: nonzero; opacity: 1;" transform=" matrix(1 0 0 1 0 0) "/>
	<rect x="40.42" y="44.37" rx="0" ry="0" width="31.58" height="6" style="stroke: none; stroke-width: 1; stroke-dasharray: none; stroke-linecap: butt; stroke-linejoin: miter; stroke-miterlimit: 10; fill: rgb(27,167,173); fill-rule: nonzero; opacity: 1;" transform=" matrix(0.6941 -0.7199 0.7199 0.6941 -16.9072 54.9552) "/>
	<circle cx="22.368000000000002" cy="55.638" r="4.498" style="stroke: none; stroke-width: 1; stroke-dasharray: none; stroke-linecap: butt; stroke-linejoin: miter; stroke-miterlimit: 10; fill: rgb(255,255,255); fill-rule: nonzero; opacity: 1;" transform="  matrix(1 0 0 1 0 0) "/>
	<path d="M 22.371 62.632 c -3.858 0 -6.998 -3.14 -6.998 -6.998 s 3.139 -6.997 6.998 -6.997 c 3.859 0 6.998 3.139 6.998 6.997 S 26.23 62.632 22.371 62.632 z M 22.371 53.637 c -1.102 0 -1.998 0.896 -1.998 1.997 s 0.896 1.998 1.998 1.998 s 1.998 -0.896 1.998 -1.998 S 23.473 53.637 22.371 53.637 z" style="stroke: none; stroke-width: 1; stroke-dasharray: none; stroke-linecap: butt; stroke-linejoin: miter; stroke-miterlimit: 10; fill: rgb(255,255,255); fill-rule: nonzero; opacity: 1;" transform=" matrix(1 0 0 1 0 0) " stroke-linecap="round" />
	<circle cx="36.178" cy="41.018" r="4.498" style="stroke: none; stroke-width: 1; stroke-dasharray: none; stroke-linecap: butt; stroke-linejoin: miter; stroke-miterlimit: 10; fill: rgb(255,255,255); fill-rule: nonzero; opacity: 1;" transform="  matrix(1 0 0 1 0 0) "/>
	<path d="M 36.173 48.019 c -3.859 0 -6.998 -3.14 -6.998 -6.998 c 0 -3.859 3.139 -6.998 6.998 -6.998 c 3.858 0 6.998 3.139 6.998 6.998 C 43.171 44.879 40.032 48.019 36.173 48.019 z M 36.173 39.022 c -1.102 0 -1.998 0.896 -1.998 1.998 s 0.896 1.998 1.998 1.998 s 1.998 -0.896 1.998 -1.998 S 37.275 39.022 36.173 39.022 z" style="stroke: none; stroke-width: 1; stroke-dasharray: none; stroke-linecap: butt; stroke-linejoin: miter; stroke-miterlimit: 10; fill: rgb(255,255,255); fill-rule: nonzero; opacity: 1;" transform=" matrix(1 0 0 1 0 0) " stroke-linecap="round" />
	<circle cx="48.348" cy="55.638" r="4.498" style="stroke: none; stroke-width: 1; stroke-dasharray: none; stroke-linecap: butt; stroke-linejoin: miter; stroke-miterlimit: 10; fill: rgb(255,255,255); fill-rule: nonzero; opacity: 1;" transform="  matrix(1 0 0 1 0 0) "/>
	<path d="M 48.352 62.632 c -3.859 0 -6.998 -3.14 -6.998 -6.998 s 3.139 -6.997 6.998 -6.997 c 3.858 0 6.998 3.139 6.998 6.997 S 52.21 62.632 48.352 62.632 z M 48.352 53.637 c -1.102 0 -1.998 0.896 -1.998 1.997 s 0.896 1.998 1.998 1.998 s 1.998 -0.896 1.998 -1.998 S 49.453 53.637 48.352 53.637 z" style="stroke: none; stroke-width: 1; stroke-dasharray: none; stroke-linecap: butt; stroke-linejoin: miter; stroke-miterlimit: 10; fill: rgb(255,255,255); fill-rule: nonzero; opacity: 1;" transform=" matrix(1 0 0 1 0 0) " stroke-linecap="round" />
	<circle cx="70.268" cy="32.897999999999996" r="4.498" style="stroke: none; stroke-width: 1; stroke-dasharray: none; stroke-linecap: butt; stroke-linejoin: miter; stroke-miterlimit: 10; fill: rgb(255,255,255); fill-rule: nonzero; opacity: 1;" transform="  matrix(1 0 0 1 0 0) "/>
	<path d="M 70.272 39.899 c -3.858 0 -6.998 -3.139 -6.998 -6.998 c 0 -3.858 3.14 -6.998 6.998 -6.998 s 6.997 3.139 6.997 6.998 C 77.27 36.76 74.131 39.899 70.272 39.899 z M 70.272 30.904 c -1.102 0 -1.998 0.896 -1.998 1.998 s 0.896 1.998 1.998 1.998 s 1.997 -0.896 1.997 -1.998 S 71.374 30.904 70.272 30.904 z" style="stroke: none; stroke-width: 1; stroke-dasharray: none; stroke-linecap: butt; stroke-linejoin: miter; stroke-miterlimit: 10; fill: rgb(255,255,255); fill-rule: nonzero; opacity: 1;" transform=" matrix(1 0 0 1 0 0) " stroke-linecap="round" />
	<rect x="19.22" y="45.33" rx="0" ry="0" width="20.1" height="6" style="stroke: none; stroke-width: 1; stroke-dasharray: none; stroke-linecap: butt; stroke-linejoin: miter; stroke-miterlimit: 10; fill: rgb(255,255,255); fill-rule: nonzero; opacity: 1;" transform=" matrix(0.6866 -0.7271 0.7271 0.6866 -25.9624 36.4313) "/>
	<rect x="39.26" y="38.82" rx="0" ry="0" width="6" height="19.02" style="stroke: none; stroke-width: 1; stroke-dasharray: none; stroke-linecap: butt; stroke-linejoin: miter; stroke-miterlimit: 10; fill: rgb(255,255,255); fill-rule: nonzero; opacity: 1;" transform=" matrix(0.7682 -0.6402 0.6402 0.7682 -21.1428 38.2572) "/>
	<rect x="43.52" y="41.27" rx="0" ry="0" width="31.58" height="6" style="stroke: none; stroke-width: 1; stroke-dasharray: none; stroke-linecap: butt; stroke-linejoin: miter; stroke-miterlimit: 10; fill: rgb(255,255,255); fill-rule: nonzero; opacity: 1;" transform=" matrix(0.6941 -0.7199 0.7199 0.6941 -13.7242 56.2359) "/>
</g>
</svg>